<?xml version="1.0" encoding="UTF-8"?>
<svg id="_레이어_2" data-name="레이어 2" xmlns="http://www.w3.org/2000/svg" viewBox="0 0 160.25 34.36">
  <defs>
    <style>
      .cls-1, .cls-2 {
        fill: #fff;
      }

      .cls-2 {
        fill-rule: evenodd;
      }
    </style>
  </defs>
  <g id="_레이어_1-2" data-name="레이어 1">
    <g>
      <path class="cls-2" d="m16.96,0c-.73,0-1.44.28-1.97.78L2,13.06c-.63.6-1.14,1.32-1.48,2.12-.34.8-.52,1.66-.52,2.53v13.79c0,.76.3,1.49.84,2.02.54.54,1.27.84,2.02.84h28.2c.76,0,1.49-.3,2.02-.84.54-.54.84-1.27.84-2.02v-13.79c0-.87-.18-1.73-.52-2.53-.34-.8-.85-1.52-1.48-2.12L18.93.78c-.53-.5-1.24-.78-1.97-.78Zm9.25,23.18c-.09.28-2.33,6.78-9.25,6.78s-9.16-6.5-9.25-6.78l3.55-1.15c.06.17,1.52,4.26,5.7,4.26s5.67-4.15,5.7-4.24h0s3.55,1.14,3.55,1.14Z"/>
      <path class="cls-1" d="m56.95,15.61v12.11c0,.53.61.66,1.65.66s1.65-.13,1.65-.66V7.26h-3.3v5.38h-3.27v2.97h3.27Zm-3.73,7.31c.46.56.66.36,1.67-.38.81-.61.99-1.02.61-1.5-.79-.91-1.95-2.61-2.66-4.26-.58-1.4-1.04-3.02-1.04-4.62v-3.65h-3.58v3.65c0,1.22-.2,2.46-.53,3.6-.58,1.9-1.8,4.01-3.12,5.61-.38.46-.08.89.76,1.52.94.74,1.24.89,1.7.38,1.07-1.19,2.41-3.27,3.15-5.28.74,1.85,2,3.71,3.05,4.92Zm12.23-15.91h-3.38v20.94c0,.56.63.69,1.67.69s1.7-.13,1.7-.69V7Z"/>
      <path class="cls-1" d="m87.67,7h-3.5v20.99c0,.58.66.71,1.73.71,1.14,0,1.78-.15,1.78-.74V7Zm-9.29,8.63c0,2.28-1.35,3.73-3.2,3.73s-3.2-1.45-3.2-3.73,1.35-3.73,3.2-3.73,3.2,1.47,3.2,3.73Zm-9.8,0c0,3.98,2.74,6.65,6.6,6.65s6.62-2.66,6.62-6.65-2.77-6.65-6.62-6.65-6.6,2.66-6.6,6.65Z"/>
      <path class="cls-1" d="m109.89,11.42c.69,0,.79-.46.79-1.45s-.1-1.47-.79-1.47h-16.29v2.92h2.97v5.71h-2.97v2.92h16.29c.69,0,.79-.46.79-1.45s-.1-1.47-.79-1.47h-2.72v-5.71h2.72Zm-18.63,12v2.97h21.01c.69,0,.79-.48.79-1.47s-.1-1.5-.79-1.5h-21.01Zm12.54-6.29h-3.86v-5.71h3.86v5.71Z"/>
      <path class="cls-1" d="m120.21,10.84c-.3.53-.53,1.14-.53,1.78,0,2.18,1.75,3.78,4.21,4.26v1.42h-9.03v2.77h21.01c.69,0,.79-.38.79-1.37s-.1-1.4-.79-1.4h-8.48v-1.47c2.33-.53,3.98-2.11,3.98-4.21,0-.63-.25-1.24-.56-1.78h2.49c.69,0,.79-.36.79-1.35s-.1-1.37-.79-1.37h-6.04v-2.31h-3.38v2.31h-6.47v2.72h2.79Zm-2.31,16.29c0,.53.51,1.32,1.02,1.83.58.61,1.47,1.17,2.08,1.17h10.58c1.22,0,1.8-.71,1.8-1.9v-5.74h-15.48v4.64Zm3.83.3c-.28,0-.41-.08-.41-.43v-1.83h8.63v2.26h-8.22Zm6.22-14.82c0,1.14-1.02,1.78-2.44,1.78s-2.41-.63-2.41-1.78,1.02-1.78,2.41-1.78,2.44.63,2.44,1.78Z"/>
      <path class="cls-1" d="m141.26,8.63v2.97h5.89c-.18.53-.48.99-.84,1.47-1.22,1.6-3.81,2.99-5.61,3.96-.56.3-.41.71.18,1.75.61,1.07.84,1.17,1.45.91,1.67-.74,5.43-2.89,6.83-5.08,1.57,2.21,4.85,3.93,7,4.85.66.28.79.15,1.42-.96.56-.96.66-1.27.15-1.55-2.16-1.19-4.97-2.51-6.29-4.49-.18-.25-.3-.56-.41-.86h5.61c.69,0,.79-.48.79-1.47s-.1-1.5-.79-1.5h-15.38Zm-2.82,14.8v2.97h21.01c.69,0,.79-.48.79-1.47s-.1-1.5-.79-1.5h-21.01Z"/>
    </g>
  </g>
</svg>