<?xml version="1.0" encoding="UTF-8"?>
<svg id="_레이어_2" data-name="레이어 2" xmlns="http://www.w3.org/2000/svg" viewBox="0 0 183.96 128.77">
  <defs>
    <style>
      .cls-1 {
        fill: #fff;
      }

      .cls-2 {
        fill: #9a9a9a;
      }
    </style>
  </defs>
  <g id="Layer_1" data-name="Layer 1">
    <path class="cls-2" d="M180.11,20.11c-2.12-7.91-8.35-14.15-16.26-16.26C149.5,0,91.98,0,91.98,0c0,0-57.53,0-71.87,3.85C12.19,5.96,5.96,12.19,3.84,20.11,0,34.45,0,64.39,0,64.39c0,0,0,29.93,3.84,44.28,2.12,7.92,8.35,14.15,16.27,16.26,14.35,3.84,71.87,3.84,71.87,3.84,0,0,57.52,0,71.87-3.84,7.91-2.12,14.15-8.35,16.26-16.26,3.84-14.35,3.84-44.28,3.84-44.28,0,0,0-29.93-3.84-44.28"/>
    <polygon class="cls-1" points="73.58 91.98 121.38 64.39 73.58 36.79 73.58 91.98"/>
  </g>
</svg>