<svg xmlns="http://www.w3.org/2000/svg" viewBox="0 0 35.08 35.79"><defs><style>.cls-1{fill:#f6c358;}.cls-2{fill:#fcd462;}.cls-3{fill:#fff;}</style></defs><g id="레이어_2" data-name="레이어 2"><g id="ICON"><path class="cls-1" d="M10.58,24.66a12.32,12.32,0,0,0,.2,2.28H2.57V22.58h8.17A13,13,0,0,0,10.58,24.66Z"/><path class="cls-1" d="M0,16.94H13a13.07,13.07,0,0,0-2,4.36H0Z"/><path class="cls-1" d="M22.41,11.29v.08a13.36,13.36,0,0,0-8.34,4.28H1.2V11.29Z"/><rect class="cls-1" x="3.76" y="5.64" width="21.2" height="4.37"/><rect class="cls-1" width="21.2" height="4.37"/><circle class="cls-2" cx="23.94" cy="24.65" r="11.14"/><circle class="cls-1" cx="23.94" cy="24.65" r="8.39"/><path class="cls-3" d="M24.61,18.42v1h2.22v1.33H24.61V24h.13a2.83,2.83,0,0,1,1.12.22,2.8,2.8,0,0,1,.94.6,2.73,2.73,0,0,1,.59,1,3.18,3.18,0,0,1,.22,1.16,3,3,0,0,1-.22,1.17,2.77,2.77,0,0,1-.61.95,2.93,2.93,0,0,1-2,.81h-.13v1H23.28v-1H20.86V28.53h2.42V25.32h-.14A2.87,2.87,0,0,1,22,25.1a2.63,2.63,0,0,1-.91-.62,2.53,2.53,0,0,1-.62-.95,3.36,3.36,0,0,1-.22-1.16,3.15,3.15,0,0,1,.22-1.16,2.91,2.91,0,0,1,.62-.93,2.84,2.84,0,0,1,2-.84h.14v-1Zm-2.55,2.83a1.54,1.54,0,0,0-.46,1.12,1.63,1.63,0,0,0,.46,1.12,1.45,1.45,0,0,0,1.08.5h.14V20.77h-.14A1.46,1.46,0,0,0,22.06,21.25Zm2.68,7.28a1.48,1.48,0,0,0,1.09-.46,1.58,1.58,0,0,0,.45-1.14,1.63,1.63,0,0,0-.45-1.12,1.44,1.44,0,0,0-1.09-.49h-.13v3.21Z"/></g></g></svg>