<svg xmlns="http://www.w3.org/2000/svg" viewBox="0 0 35.11 32.86"><defs><style>.cls-1{fill:#0e95c4;}.cls-2{fill:#7dd5f4;}.cls-3{fill:#fcd462;}</style></defs><g id="레이어_2" data-name="레이어 2"><g id="ICON"><path class="cls-1" d="M5.5,6.93H18.25a0,0,0,0,1,0,0v11a0,0,0,0,1,0,0H5.5A5.5,5.5,0,0,1,0,12.43v0a5.5,5.5,0,0,1,5.5-5.5Z"/><polygon class="cls-1" points="25.94 23.39 13.69 17.93 13.69 6.93 25.94 1.47 25.94 23.39"/><path class="cls-2" d="M31.35,1.89V22.54a1.89,1.89,0,0,1-3.78,0V1.89A1.89,1.89,0,0,1,29.46,0a1.83,1.83,0,0,1,1.33.56A1.84,1.84,0,0,1,31.35,1.89Z"/><path class="cls-1" d="M7.29,19.55h5.2a0,0,0,0,1,0,0v10.7a2.6,2.6,0,0,1-2.6,2.6h0a2.6,2.6,0,0,1-2.6-2.6V19.55A0,0,0,0,1,7.29,19.55Z"/><path class="cls-1" d="M35.11,12.21a4.38,4.38,0,0,1-2.51,4V8.25A4.37,4.37,0,0,1,35.11,12.21Z"/><rect class="cls-3" x="13.55" y="22.09" width="2.15" height="4.11"/></g></g></svg>