<svg xmlns="http://www.w3.org/2000/svg" xmlns:xlink="http://www.w3.org/1999/xlink" viewBox="0 0 645.81 100.93"><defs><style>.cls-1{fill:url(#곩晤絪牆渾_藎雪猥粧_11);}.cls-2{fill:url(#곩晤絪牆渾_藎雪猥粧_11-2);}.cls-3{fill:url(#곩晤絪牆渾_藎雪猥粧_11-3);}.cls-4{fill:url(#곩晤絪牆渾_藎雪猥粧_11-4);}.cls-5{fill:url(#곩晤絪牆渾_藎雪猥粧_11-5);}</style><linearGradient id="곩晤絪牆渾_藎雪猥粧_11" x1="56.54" y1="-6.63" x2="56.54" y2="94.58" gradientTransform="translate(-3.91 7.15) rotate(-0.52)" gradientUnits="userSpaceOnUse"><stop offset="0" stop-color="#ffeb3b"/><stop offset="1" stop-color="#ffc107"/></linearGradient><linearGradient id="곩晤絪牆渾_藎雪猥粧_11-2" x1="191.52" y1="-5.4" x2="191.52" y2="95.81" xlink:href="#곩晤絪牆渾_藎雪猥粧_11"/><linearGradient id="곩晤絪牆渾_藎雪猥粧_11-3" x1="326.5" y1="-4.17" x2="326.5" y2="97.04" xlink:href="#곩晤絪牆渾_藎雪猥粧_11"/><linearGradient id="곩晤絪牆渾_藎雪猥粧_11-4" x1="461.48" y1="-2.94" x2="461.48" y2="98.26" xlink:href="#곩晤絪牆渾_藎雪猥粧_11"/><linearGradient id="곩晤絪牆渾_藎雪猥粧_11-5" x1="596.46" y1="-1.72" x2="596.46" y2="99.49" xlink:href="#곩晤絪牆渾_藎雪猥粧_11"/></defs><g id="레이어_2" data-name="레이어 2"><g id="묐迹_1" data-name="묐迹 1"><path class="cls-1" d="M84.56,100.86,52.9,83.94a.62.62,0,0,0-.56,0l-31.89,16.5a.6.6,0,0,1-.86-.64l6.3-35.34a.62.62,0,0,0-.17-.53L.18,38.69a.6.6,0,0,1,.34-1l35.56-4.93a.6.6,0,0,0,.45-.32L52.63.33a.6.6,0,0,1,1.08,0l15.67,32.3a.64.64,0,0,0,.45.33l35.49,5.39a.6.6,0,0,1,.33,1L79.78,64.28a.58.58,0,0,0-.18.53l5.83,35.42A.6.6,0,0,1,84.56,100.86Z"/><path class="cls-2" d="M219.55,100.86,187.89,83.94a.61.61,0,0,0-.56,0l-31.89,16.5a.6.6,0,0,1-.86-.64l6.3-35.34a.59.59,0,0,0-.17-.53L135.17,38.69a.6.6,0,0,1,.34-1l35.56-4.93a.6.6,0,0,0,.46-.32L187.63.33a.6.6,0,0,1,1.07,0l15.68,32.3a.6.6,0,0,0,.44.33l35.5,5.39a.6.6,0,0,1,.32,1L214.77,64.28a.6.6,0,0,0-.18.53l5.84,35.42A.61.61,0,0,1,219.55,100.86Z"/><path class="cls-3" d="M354.55,100.86,322.88,83.94a.61.61,0,0,0-.56,0l-31.88,16.5a.6.6,0,0,1-.87-.64l6.31-35.34a.62.62,0,0,0-.17-.53L270.17,38.69a.6.6,0,0,1,.33-1l35.57-4.93a.6.6,0,0,0,.45-.32L322.62.33a.6.6,0,0,1,1.07,0l15.68,32.3a.62.62,0,0,0,.45.33l35.49,5.39a.61.61,0,0,1,.33,1L349.76,64.28a.57.57,0,0,0-.17.53l5.83,35.42A.6.6,0,0,1,354.55,100.86Z"/><path class="cls-4" d="M489.54,100.86,457.88,83.94a.62.62,0,0,0-.56,0l-31.89,16.5a.6.6,0,0,1-.86-.64l6.3-35.34a.62.62,0,0,0-.17-.53L405.16,38.69a.6.6,0,0,1,.34-1l35.56-4.93a.6.6,0,0,0,.45-.32L457.61.33a.6.6,0,0,1,1.08,0l15.67,32.3a.64.64,0,0,0,.45.33l35.49,5.39a.6.6,0,0,1,.33,1L484.76,64.28a.58.58,0,0,0-.18.53l5.83,35.42A.6.6,0,0,1,489.54,100.86Z"/><path class="cls-5" d="M624.53,100.86,592.87,83.94a.61.61,0,0,0-.56,0l-31.89,16.5a.6.6,0,0,1-.86-.64l6.3-35.34a.59.59,0,0,0-.17-.53L540.15,38.69a.6.6,0,0,1,.34-1l35.56-4.93a.6.6,0,0,0,.46-.32L592.61.33a.6.6,0,0,1,1.07,0l15.68,32.3a.6.6,0,0,0,.44.33l35.5,5.39a.6.6,0,0,1,.32,1L619.75,64.28a.6.6,0,0,0-.18.53l5.84,35.42A.61.61,0,0,1,624.53,100.86Z"/></g></g></svg>